<?xml version="1.0" encoding="UTF-8" standalone="no"?>
<svg
   viewBox="0 0 256 256"
   version="1.1"
   id="svg4"
   sodipodi:docname="placeholder.svg"
   width="256"
   height="256"
   inkscape:version="1.1.1 (3bf5ae0d25, 2021-09-20)"
   xmlns:inkscape="http://www.inkscape.org/namespaces/inkscape"
   xmlns:sodipodi="http://sodipodi.sourceforge.net/DTD/sodipodi-0.dtd"
   xmlns="http://www.w3.org/2000/svg"
   xmlns:svg="http://www.w3.org/2000/svg">
  <defs
     id="defs8" />
  <sodipodi:namedview
     id="namedview6"
     pagecolor="#ffffff"
     bordercolor="#666666"
     borderopacity="1.0"
     inkscape:pageshadow="2"
     inkscape:pageopacity="0.0"
     inkscape:pagecheckerboard="0"
     showgrid="false"
     width="256px"
     inkscape:zoom="0.99609376"
     inkscape:cx="88.847058"
     inkscape:cy="178.19608"
     inkscape:window-width="1852"
     inkscape:window-height="1009"
     inkscape:window-x="0"
     inkscape:window-y="0"
     inkscape:window-maximized="1"
     inkscape:current-layer="svg4" />
  <path
     d="M 25.6,0 C 11.456,0 0,11.456 0,25.6 V 230.4 C 0,244.544 11.456,256 25.6,256 h 204.8 c 14.144,0 25.6,-11.456 25.6,-25.6 V 25.6 C 256,11.456 244.544,0 230.4,0 Z m 76.8,25.6 c 42.4192,0 76.8,34.3808 76.8,76.8 0,15.5904 -4.8128,29.8912 -12.8,42 l 64,64 -22,22 -63.6,-64 c -12.1216,7.9872 -26.8096,12.8 -42.4,12.8 -42.4192,0 -76.8,-34.3808 -76.8,-76.8 0,-42.4192 34.3808,-76.8 76.8,-76.8 z m 0,26 c -28.163871,0 -50.8,22.636129 -50.8,50.8 0,28.16387 22.636129,50.8 50.8,50.8 28.16387,0 50.8,-22.63613 50.8,-50.8 0,-28.163871 -22.63613,-50.8 -50.8,-50.8 z"
     id="path2"
     style="stroke-width:12.8;fill:#202020;fill-opacity:0.75" />
  <path
     id="rect843"
     style="fill:#ffffff;fill-opacity:1;stroke-width:9.91681;stroke-linecap:round;stroke-linejoin:round;stroke-miterlimit:4.9;stroke-opacity:0.75;paint-order:markers stroke fill"
     d="m 102.40039,25.599609 c -42.419201,0 -76.800781,34.381582 -76.800781,76.800781 0,42.4192 34.38158,76.79883 76.800781,76.79883 15.5904,0 30.27684,-4.81163 42.39844,-12.79883 l 63.60156,64 22,-22 -64,-64 c 7.9872,-12.1088 12.79883,-26.4096 12.79883,-42 0,-42.419199 -34.37963,-76.800781 -76.79883,-76.800781 z m 0,26 c 28.16387,0 50.79883,22.636911 50.79883,50.800781 0,28.16387 -22.63496,50.79883 -50.79883,50.79883 -28.163871,0 -50.800781,-22.63496 -50.800781,-50.79883 0,-28.16387 22.63691,-50.800781 50.800781,-50.800781 z" />
</svg>
